<?xml version="1.0" standalone="no"?>
<!DOCTYPE svg PUBLIC "-//W3C//DTD SVG 20010904//EN"
 "http://www.w3.org/TR/2001/REC-SVG-20010904/DTD/svg10.dtd">
<svg version="1.0" xmlns="http://www.w3.org/2000/svg"
 width="100.000000pt" height="100.000000pt" viewBox="0 0 100.000000 100.000000"
 preserveAspectRatio="xMidYMid meet">
<metadata>
Created by potrace 1.11, written by Peter Selinger 2001-2013
</metadata>
<g transform="translate(0.000000,100.000000) scale(0.100000,-0.100000)"
fill="#000000" stroke="none">
<path d="M412 964 c-26 -18 -52 -65 -52 -93 0 -11 -13 -34 -30 -51 -16 -17
-31 -38 -31 -48 -1 -9 -3 -30 -4 -47 -2 -16 -3 -38 -4 -47 -1 -12 -9 -18 -26
-18 -38 0 -73 -20 -84 -49 -16 -40 -22 -99 -11 -106 6 -3 10 -35 10 -70 0 -48
4 -64 16 -69 8 -3 12 -11 9 -16 -4 -6 -4 -21 -1 -33 4 -18 12 -22 42 -22 l38
0 -1 60 c0 33 1 47 3 30 8 -57 15 -76 24 -70 6 3 11 0 11 -7 3 -29 7 -54 10
-67 2 -7 -5 -15 -17 -17 -32 -5 -106 -47 -118 -66 -14 -23 9 -63 51 -88 19
-11 32 -24 29 -29 -3 -4 27 -11 67 -14 40 -4 81 -9 93 -11 12 -2 32 2 45 9 13
8 34 19 47 24 12 6 22 14 22 19 0 4 15 7 33 6 43 -1 110 35 101 56 -4 8 -8 26
-8 40 0 24 -29 60 -48 60 -5 0 -6 6 -2 13 5 8 2 8 -9 -2 -11 -9 -17 -10 -17
-2 0 8 -6 8 -20 -1 -16 -11 -22 -9 -34 7 -13 18 -11 22 20 44 24 17 34 32 34
51 0 19 6 29 20 33 10 3 19 2 18 -2 -2 -19 3 -31 12 -26 5 3 10 1 10 -4 0 -6
9 -11 20 -11 11 0 20 -1 21 -2 0 -2 3 -32 6 -68 4 -59 14 -79 36 -80 4 0 7 13
7 29 0 24 3 28 24 24 19 -4 26 1 37 25 7 17 17 28 21 26 4 -3 8 10 8 28 1 18
3 66 6 106 4 46 2 83 -6 102 -11 25 -16 28 -58 28 -29 0 -54 -6 -65 -15 -9 -9
-20 -13 -25 -9 -4 4 1 13 11 20 9 7 17 17 17 22 0 5 10 15 21 22 20 13 21 20
16 90 -5 68 -9 80 -33 100 -27 24 -54 25 -96 7 -15 -6 -18 -2 -18 19 0 45 -26
95 -54 102 -14 3 -30 3 -35 -1 -6 -3 -11 0 -11 8 0 22 -39 67 -59 67 -9 0 -27
-7 -39 -16z m38 -321 c0 -38 -17 -44 -29 -10 -10 27 -5 44 14 44 10 0 15 -11
15 -34z m-60 -29 c0 -12 7 -24 15 -28 29 -11 16 -25 -14 -15 -35 12 -40 23
-33 68 4 32 6 33 18 16 8 -10 14 -29 14 -41z m230 -6 c0 -23 -3 -29 -9 -19 -8
12 -4 51 5 51 2 0 4 -15 4 -32z m-72 -11 c7 -15 20 -27 28 -27 8 0 13 -4 10
-9 -7 -11 -44 -3 -71 16 -11 7 -30 13 -43 13 -20 0 -22 3 -12 14 11 14 45 25
65 21 6 -1 16 -14 23 -28z m98 -52 c-10 -15 -20 -39 -22 -53 -11 -60 -44 -69
-44 -12 0 28 5 42 18 49 10 5 24 21 32 35 9 17 17 23 23 17 7 -7 4 -19 -7 -36z
m-31 -134 c-3 -6 -11 -11 -17 -11 -6 0 -6 6 2 15 14 17 26 13 15 -4z m-169
-107 c-10 -26 -23 -14 -18 17 4 26 6 29 14 15 5 -10 7 -24 4 -32z m-54 -8 c21
-22 8 -46 -23 -46 -15 0 -19 7 -19 35 0 39 14 42 42 11z"/>
<path d="M575 50 c3 -5 12 -7 20 -3 21 7 19 13 -6 13 -11 0 -18 -4 -14 -10z"/>
</g>
</svg>
